<?xml version="1.0" standalone="no"?>
<!DOCTYPE svg PUBLIC "-//W3C//DTD SVG 20010904//EN"
 "http://www.w3.org/TR/2001/REC-SVG-20010904/DTD/svg10.dtd">
<svg version="1.0" xmlns="http://www.w3.org/2000/svg"
 width="300.000000pt" height="165.000000pt" viewBox="0 0 300.000000 165.000000"
 preserveAspectRatio="xMidYMid meet">

<g transform="translate(0.000000,165.000000) scale(0.100000,-0.100000)"
fill="#000000" stroke="none">
<path d="M2160 1633 c-36 -13 -90 -57 -90 -74 0 -24 10 -24 60 2 59 31 120 23
200 -26 34 -21 81 -43 104 -50 25 -8 40 -18 38 -26 -2 -8 -11 -41 -19 -74 -21
-80 -12 -165 27 -261 46 -116 51 -146 36 -252 -11 -75 -10 -104 0 -160 7 -37
13 -105 14 -151 0 -76 -3 -90 -30 -138 -17 -30 -28 -58 -25 -63 23 -37 97 33
120 115 14 46 16 73 9 124 -4 36 -7 140 -6 231 3 180 -4 230 -49 323 -35 76
-44 142 -29 223 7 35 15 64 18 64 3 0 46 -33 96 -74 50 -40 118 -87 151 -104
99 -49 125 -90 125 -192 0 -73 -11 -104 -52 -138 -40 -34 -89 -140 -123 -267
-41 -156 -64 -198 -161 -292 -162 -156 -299 -243 -397 -251 -48 -4 -62 1 -171
57 -90 46 -129 61 -161 61 l-42 0 24 88 c58 216 80 424 54 518 -6 23 -21 55
-33 73 -13 17 -36 50 -53 72 -34 48 -43 100 -44 272 -1 111 0 119 23 142 21
21 28 22 62 14 22 -5 54 -12 72 -16 29 -5 33 -9 26 -27 -16 -46 -16 -359 0
-466 8 -58 20 -161 26 -230 21 -245 22 -250 42 -275 24 -30 68 -33 92 -6 15
17 27 19 90 14 67 -5 78 -3 140 26 79 38 136 85 136 112 0 38 -32 34 -122 -15
l-88 -47 -79 7 c-54 4 -81 3 -85 -5 -16 -26 -23 -5 -29 87 -4 53 -11 142 -16
197 -7 73 -6 102 2 107 6 4 38 5 72 2 56 -5 64 -3 124 33 72 43 191 148 191
168 0 39 -45 24 -132 -43 -109 -84 -126 -92 -206 -90 -55 1 -73 5 -78 17 -10
25 -17 271 -9 354 l7 76 71 21 c39 12 91 22 115 23 52 0 63 14 32 39 -28 23
-91 24 -174 2 -46 -12 -78 -14 -131 -8 -38 4 -110 8 -160 8 -127 1 -158 -16
-207 -110 -35 -69 -36 -70 -42 -41 -3 16 -6 46 -6 67 0 20 -5 51 -11 68 -11
32 -44 51 -60 35 -12 -12 5 -216 31 -363 23 -132 25 -210 8 -292 -12 -56 -4
-144 17 -203 4 -11 -4 -5 -18 13 -23 31 -25 39 -20 111 7 103 -12 169 -75 252
-51 67 -122 220 -122 263 0 15 -8 30 -20 36 -16 9 -22 6 -36 -15 -20 -31 -16
-86 20 -218 71 -267 73 -302 32 -482 -15 -66 -30 -159 -33 -207 -5 -76 -4 -88
11 -94 9 -4 19 -4 22 -2 2 3 14 52 25 109 10 57 31 154 44 215 30 134 31 187
6 284 -11 41 -18 76 -16 78 2 2 17 -15 34 -38 34 -48 43 -92 39 -205 l-3 -80
46 -65 c25 -36 58 -87 74 -115 42 -75 84 -125 105 -125 32 0 31 14 -6 90 -40
84 -61 213 -55 345 6 170 6 292 -2 349 l-9 60 27 -18 c36 -24 52 -8 25 26 -11
15 -20 33 -20 42 0 27 58 133 82 150 35 25 49 21 38 -10 -13 -34 -13 -290 0
-351 7 -31 28 -71 59 -113 26 -36 54 -83 61 -104 18 -55 8 -199 -25 -366 -15
-74 -27 -156 -28 -182 l-2 -48 -100 -39 c-340 -131 -502 -154 -664 -92 -79 30
-154 78 -356 231 -199 150 -237 175 -278 185 -21 6 -27 4 -27 -9 0 -9 6 -16
13 -16 20 0 127 -74 287 -200 276 -216 363 -261 513 -268 128 -6 181 5 432 90
125 41 229 71 256 72 39 1 66 -9 162 -58 107 -55 120 -60 179 -59 110 2 172
34 373 196 175 140 223 208 265 380 31 126 65 198 114 244 52 49 71 111 64
212 -8 110 -28 137 -175 234 -71 46 -137 94 -148 106 -25 29 -127 86 -196 110
-30 11 -94 35 -144 55 -85 33 -130 41 -165 29z"/>
<path d="M15 1571 c-3 -6 20 -39 52 -74 54 -60 149 -209 205 -322 29 -58 94
-252 104 -310 4 -22 17 -69 29 -105 29 -83 51 -163 60 -217 4 -24 15 -53 25
-65 15 -19 20 -21 34 -9 15 13 16 37 10 240 -7 230 -2 283 30 326 14 19 16 17
40 -35 19 -39 26 -72 26 -115 1 -144 73 -365 137 -415 41 -32 46 -26 39 53 -6
56 -3 90 14 157 11 47 25 152 31 233 11 167 33 267 79 356 17 34 28 66 25 71
-13 21 -34 8 -70 -44 -69 -101 -91 -188 -114 -461 -6 -61 -14 -122 -19 -135
-9 -23 -11 -21 -26 30 -9 30 -21 100 -26 155 -6 74 -15 115 -34 155 -14 30
-31 80 -37 110 -28 142 -53 200 -88 200 -35 0 -41 -21 -21 -80 29 -83 26 -128
-15 -207 -29 -55 -37 -84 -44 -153 -7 -77 -8 -81 -15 -45 -14 79 -89 281 -134
365 -120 222 -266 390 -297 341z"/>
<path d="M985 1325 c-61 -64 -78 -140 -80 -355 -1 -122 -5 -195 -14 -214 -8
-21 -10 -54 -5 -108 7 -85 21 -115 48 -105 15 6 17 20 15 99 -1 66 3 106 15
137 9 24 16 53 16 65 0 23 64 106 81 106 5 0 9 -46 9 -102 0 -198 40 -478 75
-525 11 -14 16 -15 26 -6 9 9 8 53 -5 195 -9 101 -16 235 -16 298 -1 141 -16
357 -30 427 -14 63 -48 117 -78 121 -16 3 -34 -8 -57 -33z m63 -132 c23 -146
23 -171 1 -178 -10 -4 -33 -18 -51 -33 l-31 -27 7 98 c6 93 37 207 56 207 4 0
13 -30 18 -67z"/>
</g>
</svg>
